<svg xmlns="http://www.w3.org/2000/svg" version="1.1" xmlns:xlink="http://www.w3.org/1999/xlink" xmlns:svgjs="http://svgjs.dev/svgjs" width="100%" height="100%" viewBox="0 0 1000 600"><rect width="1000" height="600" x="0" y="0" fill="#f4efea"/><g><circle r="166.66666666666666" cx="363.02346293131507" cy="385.2456920645104" fill="#7d141d" transform="matrix(0.6365963198635889,0,0,0.6365963198635888,0,54.754018263642166)"/><path d="M309.3587824955823 460.2457001200887L289.22312725586113 460.2457001200887L289.22312725586113 310.24569826641925L321.3855087021126 310.24569826641925L355.491603474672 407.5528466647098Q356.7975358657851 411.4706438380492 358.2249503397925 416.17807455020125Q359.65236481379986 420.88550526235326 360.8368151220188 425.0462666014811Q362.0516359509612 429.207027940609 362.689416886156 432.2440800129651L362.689416886156 432.2440800129651L364.2383134430576 432.2440800129651Q364.87609437825245 428.9640637748206 365.9694331243006 424.712190873522Q367.06277187034885 420.4603179722234 368.39907478218555 415.84399882224204Q369.70500717329867 411.25805019298434 370.79834591934684 407.5528466647098L370.79834591934684 407.5528466647098L404.9044406919063 310.24569826641925L436.82385797236924 310.24569826641925L436.82385797236924 460.2457001200887L416.0504217974533 460.2457001200887L416.0504217974533 372.3534131461022Q416.0504217974533 365.5504165040245 416.2630154425182 357.59334007445136Q416.5059796083067 349.6058931241548 416.7185732533717 342.9243785649712Q416.9311668984366 336.2732345265114 416.9311668984366 333.4184055784966L416.9311668984366 333.4184055784966L415.16967669647 333.4184055784966Q414.5318957612752 336.2732345265114 412.9829992043736 341.40585252879316Q411.46447316819547 346.53847053107506 409.8244650491232 352.12664634421037Q408.1844569300509 357.68445163662204 406.87852453893777 362.057806620815L406.87852453893777 362.057806620815L371.6790910203302 460.2457001200887L353.7301132727054 460.2457001200887L318.53067975409783 362.057806620815Q317.22474736298466 358.35260309254045 315.7973328889773 353.43257873532343Q314.3699184149699 348.51255437810653 312.9425039409625 343.2584542929304Q311.54545998767867 338.0043542077543 310.209157075842 333.4184055784966L310.209157075842 333.4184055784966L308.6906310396639 333.4184055784966Q308.90322468472885 338.2169478528193 309.0247067676231 345.32364970213257Q309.1158183297938 352.43035155144594 309.23730041268806 359.5370534007593Q309.3587824955823 366.6437552500727 309.3587824955823 372.3534131461022L309.3587824955823 372.3534131461022L309.3587824955823 460.2457001200887Z " fill="#f4efea" transform="matrix(0.6365963198635889,0,0,0.6365963198635888,0,54.754018263642166)"/><path d="M628.938035797046 428.8006715028381L613.0234889255923 428.8006715028381L613.0234889255923 310.24569865501053L638.4435570053352 310.24569865501053L665.3998709369225 387.15400661298577Q666.4320361186308 390.2505021581102 667.5602166660792 393.9710975805466Q668.6883972135277 397.6916930029829 669.6245470294955 400.980219279588Q670.5847006868984 404.26874555619304 671.0887813570349 406.6691296997004L671.0887813570349 406.6691296997004L672.3129772702237 406.6691296997004Q672.8170579403602 404.07671482471244 673.6811962320229 400.7161770238022Q674.5453345236855 397.3556392228919 675.6015035468288 393.70705532476074Q676.6336687285369 390.08247526806474 677.4978070201995 387.15400661298577L677.4978070201995 387.15400661298577L704.454120951787 310.24569865501053L729.6821583000492 310.24569865501053L729.6821583000492 428.8006715028381L713.263530758459 428.8006715028381L713.263530758459 359.3335543897357Q713.263530758459 353.95669390827925 713.4315576485044 347.66768745229Q713.623588379985 341.3546771548656 713.7916152700305 336.0738320391496Q713.9596421600761 330.8169907648685 713.9596421600761 328.5606296699716L713.9596421600761 328.5606296699716L712.5674193568418 328.5606296699716Q712.0633386867053 330.8169907648685 710.8391427735165 334.8736399673959Q709.6389507017628 338.9302891699233 708.3427432642688 343.34699599397675Q707.046535826775 347.73969897659515 706.0143706450667 351.1962521432457L706.0143706450667 351.1962521432457L678.1939184218166 428.8006715028381L664.0076481336882 428.8006715028381L636.1871959104383 351.1962521432457Q635.15503072873 348.26778348816686 634.0268501812816 344.3791611756849Q632.8986696338332 340.490538863203 631.7704890863847 336.3378742949353Q630.6663123803713 332.1852097266676 629.610143357228 328.5606296699716L629.610143357228 328.5606296699716L628.4099512854743 328.5606296699716Q628.57797817552 332.35323661671316 628.6739935412602 337.9701355125203Q628.7460050655654 343.58703440832744 628.8420204313057 349.2039333041347Q628.938035797046 354.82083219994183 628.938035797046 359.3335543897357L628.938035797046 359.3335543897357L628.938035797046 428.8006715028381ZM792.7642535914221 430.8650018662544L792.7642535914221 430.8650018662544Q779.2980985463458 430.8650018662544 770.0326157524075 425.7761874820188Q760.7911367999043 420.6873730977833 756.0383761957597 410.125682866351Q751.2856155916152 399.58799647635374 751.2856155916152 383.33739582480905L751.2856155916152 383.33739582480905Q751.2856155916152 366.9187682832188 756.0383761957597 356.47709725896186Q760.7911367999043 346.01142239326987 770.1286311181478 340.9226080090343Q779.4661254363914 335.8097897833637 793.4603649930392 335.8097897833637L793.4603649930392 335.8097897833637Q806.2544124779333 335.8097897833637 814.8957953945597 340.7545811189889Q823.5371783111862 345.6753686131789 827.9298812938046 355.4449320772537Q832.3465881178581 365.1904916998935 832.3465881178581 379.8808426581585L832.3465881178581 379.8808426581585L832.3465881178581 387.15400661298577L767.0081317315883 387.15400661298577Q767.3681893531144 398.027746783074 770.2246464838881 405.03686848211544Q773.0570997732268 412.04599018115687 778.7700140347742 415.2385010920216Q784.4829282963217 418.4310120028864 793.1243112129482 418.4310120028864L793.1243112129482 418.4310120028864Q798.981248523106 418.4310120028864 803.3979553471596 416.96677767534686Q807.8146621712131 415.50254334780743 810.8391461920323 412.71809774133897Q813.8636302128516 409.95765597630543 815.3998760646963 406.1650490295639Q816.9601257579761 402.34843824138716 817.1281526480216 397.85971989302845L817.1281526480216 397.85971989302845L832.0105343377671 397.85971989302845Q831.8185036062865 405.13288384785574 829.2260887312987 411.2538634137994Q826.6336738563107 417.39884682117827 821.6408748378153 421.7195382794914Q816.624071977885 426.0402297378047 809.3509080230579 428.4646177227471Q802.1017479096656 430.8650018662544 792.7642535914221 430.8650018662544ZM767.3681893531144 375.7521819313258L767.3681893531144 375.7521819313258L816.624071977885 375.7521819313258Q816.624071977885 368.14296419640755 814.8957953945597 362.9581344464317Q813.1675188112345 357.77330469645585 809.9750079003697 354.48477841985084Q806.7584931480699 351.1962521432457 802.5338170554969 349.7320178157063Q798.309140962924 348.26778348816686 792.9322804814676 348.26778348816686L792.9322804814676 348.26778348816686Q784.9870089664582 348.26778348816686 779.4661254363914 351.1962521432457Q773.9212380648894 354.14872463975985 770.9927694098105 360.1976926813983Q768.0643007547316 366.2466607230368 767.3681893531144 375.7521819313258ZM903.7340125457665 460.2457037827843L866.5760660042728 460.2457037827843Q859.9990134510626 460.2457037827843 854.4781299209958 457.58127738349106Q848.9332425494939 454.8928471427629 845.6447162728888 449.8760442828326Q842.3801938377188 444.88324526433723 842.3801938377188 437.9701389310361L842.3801938377188 437.9701389310361Q842.3801938377188 430.36092119611783 846.6048699302918 425.34411833618753Q850.8295460228646 420.32731547625724 856.7104871744576 417.9029274913148L856.7104871744576 417.9029274913148Q852.3897957161444 415.8385971278984 849.965407731202 412.1180017054621Q847.5650235876947 408.3974062830257 847.5650235876947 403.908687934667L847.5650235876947 403.908687934667Q847.5650235876947 397.85971989302845 851.9577265703131 393.70705532476074Q856.3744333943666 389.5783945979281 862.7594552160962 388.1861717946939L862.7594552160962 388.1861717946939Q856.8785140645032 384.39356484795223 853.5179762635928 378.41660833061906Q850.1574384626826 372.4636556547208 850.1574384626826 365.1904916998935L850.1574384626826 365.1904916998935Q850.1574384626826 356.5491087832671 854.21408766521 349.99606007149214Q858.2707368677374 343.419007518282 866.648077528578 339.62640057154044Q875.0254181894186 335.8097897833637 887.1233542726957 335.8097897833637L887.1233542726957 335.8097897833637Q892.6682416441977 335.8097897833637 897.4930137726474 336.60191655072117Q902.3417897425322 337.37003947664346 906.1343966892739 339.09831605996874L906.1343966892739 339.09831605996874Q912.1833647309122 336.3378742949353 915.2078487517315 332.01718283662217Q918.2323327725508 327.6964913783089 918.9284441741679 323.2077730299502L918.9284441741679 323.2077730299502L933.978852753959 323.2077730299502Q933.978852753959 328.39260277992605 931.6264762933217 332.97733649402505Q929.2981036741196 337.538066366689 925.3374698373325 340.5625503875083Q921.3528321591102 343.58703440832744 915.6399178975628 344.64320343147074L915.6399178975628 344.64320343147074Q919.9606093558762 348.7718641583033 922.1209550850327 353.95669390827925Q924.2813008141893 359.1415236582551 924.2813008141893 365.1904916998935L924.2813008141893 365.1904916998935Q924.2813008141893 373.83187461651994 920.2246516116618 380.5049425354704Q916.1680024091345 387.15400661298577 908.0547040040797 390.9466135597273Q899.9174017575897 394.76322434790404 887.6514387842672 394.76322434790404L887.6514387842672 394.76322434790404L873.489172337574 394.76322434790404Q868.8084232577346 394.76322434790404 865.8799546026557 396.56351245553446Q862.9274821061416 398.38780440460005 862.9274821061416 402.34843824138716L862.9274821061416 402.34843824138716Q862.9274821061416 405.8049914080377 865.8799546026557 407.9653371371944Q868.8084232577346 410.125682866351 873.489172337574 410.125682866351L873.489172337574 410.125682866351L910.455088147587 410.125682866351Q920.4886938674476 410.125682866351 926.8737156891772 416.7987507853014Q933.2827413523419 423.4478148628167 933.2827413523419 433.8174743627685L933.2827413523419 433.8174743627685Q933.2827413523419 441.23466136620607 929.5621459299055 447.21161788353936Q925.841550507469 453.1645705594376 919.1924864299538 456.71713909182847Q912.5434223524384 460.2457037827843 903.7340125457665 460.2457037827843L903.7340125457665 460.2457037827843ZM870.896757462586 448.6758522110789L870.896757462586 448.6758522110789L903.5419818142859 448.6758522110789Q907.526619492508 448.6758522110789 910.8151457691131 447.0435909934939Q914.1036720457182 445.3873259344738 915.9999755190889 442.4588572793948Q917.8962789924597 439.5063847828808 917.8962789924597 436.04983161623034L917.8962789924597 436.04983161623034Q917.8962789924597 430.1928943060724 914.4397258258091 426.7363411394218Q910.9831726591586 423.27978797277126 905.7983429091828 423.27978797277126L905.7983429091828 423.27978797277126L870.896757462586 423.27978797277126Q865.351870091084 423.27978797277126 861.5592631443425 426.9763795537725Q857.7426523561658 430.69697497620894 857.7426523561658 436.04983161623034L857.7426523561658 436.04983161623034Q857.7426523561658 441.7627458777778 861.5592631443425 445.21929904442834Q865.351870091084 448.6758522110789 870.896757462586 448.6758522110789ZM887.3153850041763 383.33739582480905L887.3153850041763 383.33739582480905Q898.35715206431 383.33739582480905 903.7340125457665 378.51262369635936Q909.0868691857879 373.6638477264745 909.0868691857879 365.1904916998935L909.0868691857879 365.1904916998935Q909.0868691857879 356.90916640479327 903.7340125457665 352.0603904349084Q898.35715206431 347.2356183064586 887.3153850041763 347.2356183064586L887.3153850041763 347.2356183064586Q876.2496141026074 347.2356183064586 870.8007420968457 352.0603904349084Q865.351870091084 356.90916640479327 865.351870091084 365.1904916998935L865.351870091084 365.1904916998935Q865.351870091084 370.56735218135 867.7762580760265 374.69601290818264Q870.2006460609689 378.84867747645035 875.0254181894186 381.1050385713472Q879.8741941593034 383.33739582480905 887.3153850041763 383.33739582480905ZM970.0806302723093 430.8650018662544L970.0806302723093 430.8650018662544Q965.0878312538141 430.8650018662544 960.0710283938838 429.6648097945008Q955.0542255339534 428.4646177227471 950.7335340756401 425.6801721162785Q946.412842617327 422.9197303512451 943.820427742339 417.9989428570551Q941.228012867351 413.078155362865 941.228012867351 405.6369645179923L941.228012867351 405.6369645179923Q941.228012867351 396.2994701997487 945.7167312157098 390.2505021581102Q950.2054495640687 384.20153411647175 958.2467364448182 380.84099631556137Q966.2880233255678 377.4804585146511 977.3537942271366 376.1842510771572Q988.4195651287055 374.88804363966324 1001.3816395036451 374.88804363966324L1001.3816395036451 374.88804363966324L1001.3816395036451 364.51838413971154Q1001.3816395036451 359.50158127978113 999.6533629203198 355.87700122308513Q997.9250863369946 352.22841732495397 993.508379512941 350.2601023272779Q989.0916726888875 348.26778348816686 980.9783742838326 348.26778348816686L980.9783742838326 348.26778348816686Q973.2011296588689 348.26778348816686 968.6163959447699 350.2601023272779Q964.0316622306709 352.22841732495397 962.2313741230403 355.3489167115134Q960.4070821739748 358.469416098073 960.4070821739748 362.26202304481455L960.4070821739748 362.26202304481455L960.4070821739748 364.85443791980254L945.7167312157098 364.85443791980254Q945.5487043256644 363.99029962813984 945.5487043256644 363.12616133647725Q945.5487043256644 362.26202304481455 945.5487043256644 361.061830973061L945.5487043256644 361.061830973061Q945.5487043256644 352.75650183652556 950.1334380397634 347.1396029407183Q954.7181717538624 341.52270404491117 962.9994970489627 338.66624691413745Q971.3048261854981 335.8097897833637 982.0105394655409 335.8097897833637L982.0105394655409 335.8097897833637Q993.4123641472007 335.8097897833637 1001.1175972478593 339.09831605996874Q1008.7988265070828 342.38684233657386 1012.6874488195647 348.4358103782123Q1016.5760711320465 354.48477841985084 1016.5760711320465 362.9581344464317L1016.5760711320465 362.9581344464317L1016.5760711320465 412.2140170712024Q1016.5760711320465 415.50254334780743 1018.1363208253263 416.7987507853014Q1019.6965705186061 418.0949582227954 1021.9289277720679 418.0949582227954L1021.9289277720679 418.0949582227954L1028.6740072153234 418.0949582227954L1028.6740072153234 428.10456010122095Q1026.249619230381 429.1367252829291 1023.3211505753022 429.92885205028654Q1020.3926819202233 430.69697497620894 1016.5760711320465 430.69697497620894L1016.5760711320465 430.69697497620894Q1012.0873527836878 430.69697497620894 1009.1588841286089 428.8966868685784Q1006.2064116320948 427.0723949195128 1004.6461619388151 423.8798840086481Q1003.1099160869703 420.6873730977833 1002.5818315753988 416.7027354195611L1002.5818315753988 416.7027354195611L1001.3816395036451 416.7027354195611Q998.2611401170856 421.0234268778743 993.508379512941 424.2159377887391Q988.7556189087966 427.4084486996038 982.8746777572035 429.1367252829291Q976.9937366056106 430.8650018662544 970.0806302723093 430.8650018662544ZM973.8972410604861 418.0949582227954L973.8972410604861 418.0949582227954Q979.4181245905529 418.0949582227954 984.338912084743 416.36668163947Q989.283703420368 414.63840505614473 993.0763103671097 411.421890303845Q996.8689173138513 408.22937939298015 999.1252784087482 403.74066104462145Q1001.3816395036451 399.25194269626274 1001.3816395036451 393.89908605624134L1001.3816395036451 393.89908605624134L1001.3816395036451 386.28986832132307Q987.3633961055622 386.28986832132307 977.5218211171821 387.8501180146029Q967.6802461288021 389.3863638664476 962.3994010130859 393.37100154466975Q957.1185558973697 397.3556392228919 957.1185558973697 404.60479933628415L957.1185558973697 404.60479933628415Q957.1185558973697 409.2615445746883 959.2068901022211 412.2140170712024Q961.2712204656375 415.1424857262813 965.0878312538141 416.6067200538208Q968.8804382005557 418.0949582227954 973.8972410604861 418.0949582227954ZM1060.3110702267504 428.8006715028381L1044.3965233552967 428.8006715028381L1044.3965233552967 310.24569865501053L1069.8165914350393 310.24569865501053L1096.772905366627 387.15400661298577Q1097.8050705483352 390.2505021581102 1098.9332510957834 393.9710975805466Q1100.061431643232 397.6916930029829 1100.9975814591996 400.980219279588Q1101.9577351166026 404.26874555619304 1102.4858196281743 406.6691296997004L1102.4858196281743 406.6691296997004L1103.686011699928 406.6691296997004Q1104.2140962114995 404.07671482471244 1105.0782345031623 400.7161770238022Q1105.942372794825 397.3556392228919 1106.9745379765332 393.70705532476074Q1108.0067031582412 390.08247526806474 1108.8708414499038 387.15400661298577L1108.8708414499038 387.15400661298577L1135.8271553814914 310.24569865501053L1161.0551927297533 310.24569865501053L1161.0551927297533 428.8006715028381L1144.6365651881633 428.8006715028381L1144.6365651881633 359.3335543897357Q1144.6365651881633 353.95669390827925 1144.8285959196437 347.66768745229Q1144.9966228096891 341.3546771548656 1145.1646496997348 336.0738320391496Q1145.3326765897802 330.8169907648685 1145.3326765897802 328.5606296699716L1145.3326765897802 328.5606296699716L1143.9644576279811 328.5606296699716Q1143.4363731164094 330.8169907648685 1142.236181044656 334.8736399673959Q1141.011985131467 338.9302891699233 1139.7157776939732 343.34699599397675Q1138.4195702564793 347.73969897659515 1137.3874050747709 351.1962521432457L1137.3874050747709 351.1962521432457L1109.566952851521 428.8006715028381L1095.3806825633926 428.8006715028381L1067.5602303401424 351.1962521432457Q1066.5280651584344 348.26778348816686 1065.399884610986 344.3791611756849Q1064.2717040635375 340.490538863203 1063.167527357524 336.3378742949353Q1062.0393468100756 332.1852097266676 1061.0071816283676 328.5606296699716L1061.0071816283676 328.5606296699716L1059.7829857151787 328.5606296699716Q1059.9510126052242 332.35323661671316 1060.0470279709643 337.9701355125203Q1060.143043336705 343.58703440832744 1060.21505486101 349.2039333041347Q1060.3110702267504 354.82083219994183 1060.3110702267504 359.3335543897357L1060.3110702267504 359.3335543897357L1060.3110702267504 428.8006715028381ZM1210.67113297605 430.8650018662544L1210.67113297605 430.8650018662544Q1205.6543301161198 430.8650018662544 1200.6375272561895 429.6648097945008Q1195.6207243962592 428.4646177227471 1191.3000329379458 425.6801721162785Q1186.9793414796327 422.9197303512451 1184.3869266046447 417.9989428570551Q1181.7945117296567 413.078155362865 1181.7945117296567 405.6369645179923L1181.7945117296567 405.6369645179923Q1181.7945117296567 396.2994701997487 1186.3072339194507 390.2505021581102Q1190.7959522678093 384.20153411647175 1198.837239148559 380.84099631556137Q1206.8545221878735 377.4804585146511 1217.9202930894423 376.1842510771572Q1228.9860639910114 374.88804363966324 1241.9481383659506 374.88804363966324L1241.9481383659506 374.88804363966324L1241.9481383659506 364.51838413971154Q1241.9481383659506 359.50158127978113 1240.2198617826255 355.87700122308513Q1238.4915851993003 352.22841732495397 1234.0748783752467 350.2601023272779Q1229.682175392628 348.26778348816686 1221.5448731461386 348.26778348816686L1221.5448731461386 348.26778348816686Q1213.7676285211746 348.26778348816686 1209.2068986485106 350.2601023272779Q1204.6221649344116 352.22841732495397 1202.7978729853462 355.3489167115134Q1200.9975848777156 358.469416098073 1200.9975848777156 362.26202304481455L1200.9975848777156 362.26202304481455L1200.9975848777156 364.85443791980254L1186.3072339194507 364.85443791980254Q1186.11520318797 363.99029962813984 1186.11520318797 363.12616133647725Q1186.11520318797 362.26202304481455 1186.11520318797 361.061830973061L1186.11520318797 361.061830973061Q1186.11520318797 352.75650183652556 1190.699936902069 347.1396029407183Q1195.2846706161681 341.52270404491117 1203.5899997527035 338.66624691413745Q1211.8713250478038 335.8097897833637 1222.6010421692815 335.8097897833637L1222.6010421692815 335.8097897833637Q1234.0028668509415 335.8097897833637 1241.684096110165 339.09831605996874Q1249.3893292108237 342.38684233657386 1253.2779515233055 348.4358103782123Q1257.1665738357874 354.48477841985084 1257.1665738357874 362.9581344464317L1257.1665738357874 362.9581344464317L1257.1665738357874 412.2140170712024Q1257.1665738357874 415.50254334780743 1258.702819687632 416.7987507853014Q1260.2630693809117 418.0949582227954 1262.5194304758086 418.0949582227954L1262.5194304758086 418.0949582227954L1269.2645099190643 418.0949582227954L1269.2645099190643 428.10456010122095Q1266.840121934122 429.1367252829291 1263.887649437608 429.92885205028654Q1260.9591807825288 430.69697497620894 1257.1665738357874 430.69697497620894L1257.1665738357874 430.69697497620894Q1252.6538516459937 430.69697497620894 1249.7253829909146 428.8966868685784Q1246.7969143358357 427.0723949195128 1245.236664642556 423.8798840086481Q1243.6764149492762 420.6873730977833 1243.1483304377045 416.7027354195611L1243.1483304377045 416.7027354195611L1241.9481383659506 416.7027354195611Q1238.8276389793912 421.0234268778743 1234.0748783752467 424.2159377887391Q1229.3221177711023 427.4084486996038 1223.4651804609443 429.1367252829291Q1217.5842393093512 430.8650018662544 1210.67113297605 430.8650018662544ZM1214.4637399227918 418.0949582227954L1214.4637399227918 418.0949582227954Q1220.0086272942938 418.0949582227954 1224.9294147884837 416.36668163947Q1229.850202282674 414.63840505614473 1233.6428092294154 411.421890303845Q1237.459420017592 408.22937939298015 1239.6917772710538 403.74066104462145Q1241.9481383659506 399.25194269626274 1241.9481383659506 393.89908605624134L1241.9481383659506 393.89908605624134L1241.9481383659506 386.28986832132307Q1227.953898809303 386.28986832132307 1218.0883199794878 387.8501180146029Q1208.2467449911078 389.3863638664476 1202.9658998753916 393.37100154466975Q1197.7090586011104 397.3556392228919 1197.7090586011104 404.60479933628415L1197.7090586011104 404.60479933628415Q1197.7090586011104 409.2615445746883 1199.773388964527 412.2140170712024Q1201.8617231693784 415.1424857262813 1205.6543301161198 416.6067200538208Q1209.4469370628613 418.0949582227954 1214.4637399227918 418.0949582227954ZM1297.2529890323601 428.8006715028381L1282.0345535625236 428.8006715028381L1282.0345535625236 337.89812398821516L1294.324520377281 337.89812398821516L1295.6927393390802 352.924528726571L1296.916935252269 352.924528726571Q1298.2851542140681 348.60383726825785 1300.7095421990105 344.715214955776Q1303.1339301839528 340.826592643294 1307.2865947522207 338.33019313404645Q1311.4152554790533 335.8097897833637 1317.4642235206918 335.8097897833637L1317.4642235206918 335.8097897833637Q1320.0566383956796 335.8097897833637 1322.2169841248362 336.241858929195Q1324.377329853993 336.6739280750263 1325.4334988771363 337.202012586598L1325.4334988771363 337.202012586598L1325.4334988771363 351.1962521432457L1319.7205846155887 351.1962521432457Q1313.8396434639956 351.1962521432457 1309.6149673714228 353.18857098235685Q1305.3662874374147 355.180889821468 1302.6058456723815 358.805469878164Q1299.8454039073479 362.4300499348601 1298.5491964698538 367.4468527947905Q1297.2529890323601 372.4636556547208 1297.2529890323601 378.1525660748332L1297.2529890323601 378.1525660748332L1297.2529890323601 428.8006715028381ZM1360.671138103824 430.8650018662544L1360.671138103824 430.8650018662544Q1353.5900048804772 430.8650018662544 1349.62937104369 428.20057546696125Q1345.644733365468 425.5121452262331 1343.9164567821426 421.11944224361457Q1342.1881801988172 416.7027354195611 1342.1881801988172 411.6859325596307L1342.1881801988172 411.6859325596307L1342.1881801988172 350.69217147310917L1330.4262978956315 350.69217147310917L1330.4262978956315 337.89812398821516L1342.5242339789086 337.89812398821516L1345.308679585377 312.47805590847236L1357.406615668654 312.47805590847236L1357.406615668654 337.89812398821516L1374.4973507704262 337.89812398821516L1374.4973507704262 350.69217147310917L1357.406615668654 350.69217147310917L1357.406615668654 409.4535753061689Q1357.406615668654 413.77426676448215 1358.9428615204986 415.9346124936387Q1360.5031112137783 418.0949582227954 1364.8238026720917 418.0949582227954L1364.8238026720917 418.0949582227954L1374.4973507704262 418.0949582227954L1374.4973507704262 428.10456010122095Q1372.7690741871008 428.96869839288365 1370.3686900435935 429.49678290445524Q1367.9443020586511 430.0008635745918 1365.4238987079684 430.4329327204231Q1362.9274991987209 430.8650018662544 1360.671138103824 430.8650018662544Z " fill="#7d141d" transform="matrix(0.6365963198635889,0,0,0.6365963198635888,0,54.754018263642166)"/></g></svg>